<svg xmlns="http://www.w3.org/2000/svg" viewBox="0 -0.5 48 48" shape-rendering="crispEdges">
<metadata>made with px2svg hosted @ testing.duckwithsunglasses.com/px2svg</metadata>
<path stroke="#0000ff" d="M36 0h7M33 1h3M43 1h2M31 2h3M45 2h1M29 3h3M46 3h1M20 4h12M46 4h1M17 5h15M47 5h1M16 6h19M47 6h1M15 7h22M47 7h1M14 8h7M24 8h14M47 8h1M13 9h6M22 9h18M47 9h1M12 10h5M21 10h20M12 11h3M20 11h22M11 12h3M19 12h24M11 13h1M18 13h25M10 14h1M17 14h7M29 14h15M16 15h6M31 15h13M15 16h6M32 16h12M14 17h6M33 17h12M13 18h6M33 18h12M12 19h7M33 19h12M11 20h8M33 20h12M10 21h9M33 21h13M10 22h36M9 23h37M8 24h38M8 25h38M7 26h39M6 27h5M12 27h7M6 28h4M12 28h7M5 29h5M12 29h7M5 30h4M13 30h6M4 31h5M11 31h1M13 31h7M33 31h12M4 32h4M12 32h1M14 32h6M32 32h13M3 33h5M13 33h1M15 33h6M31 33h13M3 34h4M12 34h1M14 34h9M29 34h15M3 35h3M13 35h1M15 35h28M2 36h4M14 36h1M16 36h27M2 37h4M15 37h1M17 37h25M2 38h4M16 38h2M19 38h22M2 39h3M18 39h1M20 39h20M2 40h3M19 40h1M21 40h17M2 41h3M22 41h1M24 41h13M3 42h2M23 42h1M25 42h1M27 42h7M3 43h2M29 43h1M4 44h2M16 44h2M4 45h3M14 45h2M6 46h8" />
<path stroke="#000080" d="M36 1h7M34 2h2M44 2h1M32 3h2M45 3h1M32 4h1M45 4h1M32 5h3M46 5h1M14 6h2M35 6h2M46 6h1M12 7h3M37 7h1M46 7h1M11 8h3M38 8h2M46 8h1M10 9h3M40 9h1M46 9h1M9 10h3M41 10h1M46 10h1M8 11h4M42 11h1M7 12h4M43 12h1M6 13h5M43 13h1M5 14h5M24 14h5M44 14h1M5 15h5M22 15h2M29 15h2M44 15h1M4 16h5M21 16h1M30 16h2M44 16h1M4 17h4M20 17h1M32 17h1M45 17h1M4 18h3M19 18h1M32 18h1M45 18h1M3 19h3M19 19h1M32 19h1M45 19h1M3 20h3M19 20h1M32 20h1M45 20h1M3 21h2M19 21h14M46 21h1M3 22h1M46 22h1M46 23h1M46 24h1M46 25h1M46 26h1M11 27h1M10 28h2M19 28h1M10 29h2M19 29h1M9 30h4M19 30h1M34 30h12M9 31h2M12 31h1M20 31h1M45 31h1M8 32h4M13 32h1M20 32h1M45 32h1M8 33h5M14 33h1M21 33h2M44 33h1M7 34h5M13 34h1M23 34h6M44 34h1M6 35h1M8 35h5M14 35h1M43 35h1M6 36h1M8 36h6M15 36h1M43 36h1M6 37h1M9 37h6M16 37h1M42 37h1M6 38h1M10 38h6M18 38h1M41 38h1M5 39h1M11 39h7M19 39h1M40 39h1M5 40h1M13 40h6M20 40h1M38 40h2M5 41h1M14 41h8M23 41h1M37 41h1M5 42h1M17 42h6M24 42h1M26 42h1M34 42h3M2 43h1M5 43h1M19 43h10M30 43h4M2 44h1M6 44h1M3 45h1M7 45h1M4 46h2" />
<path stroke="#008080" d="M21 8h1M23 8h1M19 9h1M21 9h1M17 10h1M15 11h1M14 12h1M12 13h1M11 14h1M10 15h1M5 28h1M4 30h1M3 32h1M2 35h1M2 42h1M3 44h1" />
<path stroke="#c0c0c0" d="M22 8h1M16 11h1M18 11h1M15 12h1M17 12h1M13 13h1M16 13h1M12 14h1M15 14h1M11 15h1M14 15h1M10 16h1M13 16h1M9 17h1M12 17h1M8 18h1M10 18h1M7 19h1M9 19h1M8 20h1M7 21h1M6 22h1M8 22h1M4 23h1M7 23h1M4 25h1M6 25h1M3 26h1M5 26h1M2 27h1M4 27h1M3 28h1M2 29h1" />
<path stroke="#ffff00" d="M20 9h1M18 10h2M17 11h1M16 12h1M14 13h2M13 14h2M12 15h2M11 16h2M10 17h1M9 18h1M11 18h1M8 19h1M10 19h1M7 20h1M9 20h1M6 21h1M8 21h1M5 22h1M7 22h1M6 23h1M5 24h1" />
<path stroke="#808080" d="M20 10h1M19 11h1M18 12h1M17 13h1M16 14h1M15 15h1M14 16h1M13 17h1M12 18h1M7 25h1" />
<path stroke="#000000" d="M27 15h2M29 16h1M30 17h2M31 18h1M31 19h1M31 20h1M19 27h28M33 30h1M32 31h1M31 32h1M29 33h2M7 35h1M7 36h1M8 37h1M9 38h1M10 39h1M11 40h2M13 41h1M14 42h3M17 43h2M18 44h12M16 45h2M14 46h2M6 47h8" />
<path stroke="#808000" d="M9 16h1M8 17h1M7 18h1M6 19h1M11 19h1M6 20h1M10 20h1M5 21h1M9 21h1M4 22h1M9 22h1M3 23h1M5 23h1M8 23h1M3 24h2M6 24h2M2 25h2M5 25h1M2 26h1M4 26h1M6 26h1M1 27h1M3 27h1M5 27h1M1 28h2M4 28h1M1 29h1M3 29h2M0 30h4M0 31h4M0 32h3M0 33h3M0 34h3M0 35h2M0 36h2M0 37h2M0 38h2M0 39h2M1 40h1M1 41h1M1 42h1" />
<path stroke="#ffffff" d="M11 17h1" />
</svg>